<svg id="Layer_1" data-name="Layer 1" xmlns="http://www.w3.org/2000/svg" viewBox="0 0 885.56 851.75"><defs><style>.cls-1{fill:#ee5050;}</style></defs><title>CSSA_LOGO_2019</title><path class="cls-1" d="M284.79,718.75q-11.4,3-22.81,5.81c-21,5.08-41.77,19.17-53.12,37.72,53.07-17.13,110.08-17.59,165.69-13.4s110.94,12.84,166.7,13.38c15.41.15,31.16-.38,45.63-5.73s27.61-16.3,32-31.09c3.73-12.65.65-26.38-4.54-38.51-8.35-19.52-21.88-36.3-35.24-52.8-13.22-16.32-27.37-33.34-47-40.77-18.32-6.93-38.68-4.46-58.11-2Q381.49,603,288.64,611c-1.71.14-3.65.21-4.87-1a6,6,0,0,1-1.32-3.2,143.55,143.55,0,0,1-2.59-21.06c-.09-2.54.55-5.35,2.63-6.81s4.41-1.13,6.65-1.29c2.53-.19,5.06-.38,7.59-.53l17.22-1,34.44-2c3.5-.2,7.18-.76,10.68-.62q-40.44-1.66-80.94-.44c-4.28.13-9.87.62-12.3,4.73-1.51,2.56-1.18,5.75-.81,8.69q1.92,15.19,3.86,30.38a13.71,13.71,0,0,0,1.69,5.9c2.62,4,8.33,4.14,13.11,3.84L450.4,616.18c3.37-.22,8.35,2.06,6.45,4.86a1375.53,1375.53,0,0,1-181,14.8c-5,.08-10.45,0-14.24-3.28-3.46-3-4.6-7.77-5.42-12.25q-2.31-12.66-3.36-25.52c-.34-4.21-.64-8.45-.69-12.67s-.57-8.55.07-12.72a7.62,7.62,0,0,1,1.29-3.51c3-3.94,12.07-3.54,16.44-4.07,6.82-.82,13.66-1.47,20.51-2,13.71-1.07,27.45-1.69,41.19-2.26l3.7-.16c48.52-2,97.11-5.79,145.07-13.5q31.68-5.1,62.88-12.66c3.56-.86,7.4-1.94,9.57-4.88-3.73-2.66-8.56-3-13.13-3.26-43.25-2.18-86.57.2-129.87,1.13-42.8.92-85.66-.8-128.33.4-32,.91-65.63,6.78-71.63,43.89-2.13,13.17-.46,26.63,1.22,39.87,2.11,16.7,4.82,34.68,16.65,46.66,14.09,14.24,36.38,15.4,56.41,15.22A1418,1418,0,0,0,466.28,657c9.83-1.36,20.05-2.79,29.5.22,15.7,5,25.08,20.66,33,35.1.8,1.46,1.56,3.41.44,4.64-.77.84-2,.88-3.18.86-30.82-.51-61.56-2.92-92.36-3.83q-23.41-.71-46.82.17c-14.92.59-28.78,4.34-43.2,8.32C324.08,707.84,304.46,713.52,284.79,718.75ZM574,543" transform="translate(-56 -74.05)"/><path class="cls-1" d="M582.5,222.53c1.48,6.46,1.32,13.62,1.87,20.25.63,7.48,1.33,15,2.18,22.42,1.35,11.88,3.09,23.72,5.54,35.42s6.09,23.06,8.76,34.7a762.43,762.43,0,0,1,13.69,77.81,710.67,710.67,0,0,1,5.25,78.78q.12,12.63-.22,25.28c-1.26,45.89-7.19,92.2.59,137.44,1.29,7.54,3.06,15.24,7.53,21.44S640,686.63,647.42,685a8,8,0,0,0,4.78-2.71,10.86,10.86,0,0,0,1.52-3.64c16-58.19,18.76-119.48,13.53-179.61S649,379.7,633.86,321.27c-.61-2.35-2.27-5.32-4.56-4.55-2,.67-2,3.48-1.63,5.56l14.55,78.22c.44,2.35.85,4.89-.2,7s-4.23,3.35-5.89,1.63a5.72,5.72,0,0,1-1.19-3q-7.49-38.71-17.23-76.93-9.78-38.38-21.8-76.16C591.72,240,587,227,582.5,213.92m0,0c-1.65-1.64-2.21-.83-1.94,1.15a50.8,50.8,0,0,0,1.94,7.46M554,208c-1.24-6.32-215.18,5.52-219.72,5.66a272.47,272.47,0,0,0-80.1,14.68,266.41,266.41,0,0,0-25.27,10.15c-3.21,1.49-6.91,2.83-9.56,5.25-1.85,1.69-3,4-4.53,6-9.88,13.34-11.88,28.6-12.29,44.86v.47c-.52,21.67.19,45.07,13.31,62.32,12.62,16.6,34,23.76,54.5,27.73,79.24,15.35,160.92-3.79,241.58-.61,2.12.08,4.46.28,5.9,1.84s1.45,3.68,1.46,5.68l.21,27.14c0,3.51,0,7.15-1.38,10.38-3.73,8.5-14.84,10.13-24.1,10.89-38.64,3.15-76.11,12.35-112.28,26.13-17.63,6.72-35,15.06-53.74,18.05-14.71,2.33-29.83,1.23-44.41-1.86a223.44,223.44,0,0,1-30.79-9.15c-9.14-3.36-17.75-7-24.63-14.16-13-13.47-15-33.73-16.37-52.36-9.14,25.81.95,55.88,20.54,75s47.1,28.42,74.37,30.9,54.67-1.26,81.79-5L508.42,491.5c22-3,47-7.92,58.42-27,5.07-8.47,6.59-18.56,7.4-28.4a241.44,241.44,0,0,0-4.11-68.22c-1.81-8.84-4.33-18-10.42-24.64-8.89-9.73-23.17-12-36.31-12.95-83.63-6.1-168.32,17.08-251,3.11-4.81-.82-9.86-1.87-13.51-5.11-4.68-4.13-6-10.79-7-16.94-1.47-8.61-2.93-17.5-.94-26s8.32-16.62,17-17.91c-8.65-2.41-17.87,3.6-22,11.55s-4.47,17.29-4.42,26.26c.06,10.8.89,22.67,8.37,30.45,4.67,4.85,11.24,7.32,17.7,9.22,28.35,8.34,58.39,8.39,87.94,8.38l46.28,0a348.37,348.37,0,0,1-121,4.91c-13.45-1.82-27.67-4.87-37.24-14.49-13.18-13.26-13.35-34.36-11.45-53,1-10,2.75-20.77,9.87-27.88,13.07-13.07,57.56-27,88.14-31.87,49.1-7.83,59.94-2,103-5C504.82,221.07,554.63,211.21,554,208Z" transform="translate(-56 -74.05)"/><path class="cls-1" d="M471,106c-5.48,0-117.81-6.61-130.62-6.72Q301.17,99,262,98.88c-42.18,0-84.71.26-126.33,8-32.95,6.11-66.76,20-75.78,55.79-2.14,8.47-4.3,17.12-3.77,25.84.47,7.65,3,15,5.27,22.32,22.78,72.73,32.83,150.58,37.34,226.42,4.6,77.33,3.16,154.71,0,232-1.73,41.85-4.58,83.65-6.14,125.51-.94,24.91-7,55.16,7.8,77.37,17.59,26.37,57.09,26.74,85.31,26.6,51-.26,101.92-4.49,152.83-7.79,113.2-7.34,221-26,325.9-71.61,66.32-28.82,122.71-68.51,162.14-129.25-60.89,42-120.62,71.6-194.15,85-95.22,17.42-193.63,14.76-289.87,23.32-46.24,4.11-92.57,6.06-139,7.51-8.38.26-9.59-3.2-9.13-10.27,1.26-19.3,2.09-38.63,3-58,5.3-114.87,10-229.69-3-344.45C187,328.54,174.11,265.1,154,203.12c-1.05-3-5.69-11.13-4.12-14.16,1.91-3.68,11.41-3.85,15.06-4.56,72.21-13.91,148.78-6,221.9-11.67C409,171,398,172,408.61,172.5c5.33.24,8.38-.65,13.07-3.1-75.56-2.23-151.31-3.5-226.9-2-20.59.41-56.78-2.41-63.6,9.79-8,14.36,1.82,26.8,3.41,31.57,25.24,75.69,30.4,158.08,32.26,237.8q-.39,38.08-.86,76.16c0,3.19,1.74,11.71-.85,14.14-4.87,4.56-5.12-3.22-5.38-6.73-1-12.63-.44-25.54-.85-38.22q-2.46-76.35-11-152.35c-5.41-47.85-13-96.92-32.81-141.29-4.82-10.79-7.47-26.21,3.59-33.93,6.79-4.74,14.74-6.36,22.76-7.44,11.22-1.51,22.51-2.45,33.8-3.25l10.85-.73c40-2.66,79.87-2.91,119.85-4.68,9.32-.41,18.67-.93,28-1,15.37,0,30.87-.69,46.23-.13,20.91.76,41.82,1.26,62.72-.17l27.81-.29,32.28,0c10.5,0,19.89.88,29.58-4.3-56.24,1.35-112.25-1.85-168.4-1.85-22.77-.26-45.54-.09-68.32.11-22.17.19-44.5-.38-66.6.66l-68.63,3.22c-7.93.37-16.2,0-24,1.5-8,1.58-15.79,4.21-23.89,5.28-.8-3.87,3.36-6.58,6.6-7.87,17.87-7.1,37.22-8.6,56.24-9.41,18.71-.8,37.4-2.06,56.12-2.47,32.21-.7,65.45-2.47,97.56.56,4.75.45,9.47,1.13,14.22,1.54,35.27,3,71.5,1.88,106.9,2.48,24.07.41,48.14.62,72.21.34,11.25-.14,131.6,4.39,150.3,1.39,16.1-2.59,33.15-3.29,48-10.89,7-3.61,13.38-8.64,20.9-11.05,6-1.92,11.21-2.81,15.16-8a554.58,554.58,0,0,1-106.27,16c-17,.9-85.67,2-103.19,2-48.52,0-97.62-2.57-146.41-2.1-47.34-2.61-94.73-2.91-142.12-2.54-20.9.17-41.52,0-62.42,1.3q-17,1.08-34,2.72c-10.71,1-22.52,4-33.22,2.89-3.78-7,15.94-7.16,20.1-7.78q15-2.2,30-3.6c75.58-7,152.85-1.9,228.68-2.12l9.18,0c50.28,0,100.58.73,150.83-.28,20.76-.42,40.95-.38,61.72-2q20.34-1.57,40.59-4c6.9-.84,13.93-1.5,20.77-2.77,4.69-.87,10.72-1,14.29-4.52-23.54-3.72-49.72-1-73.38.76-26.51,2-127.33,4.1-143.09,4.1" transform="translate(-56 -74.05)"/><path class="cls-1" d="M758.8,369.34c-1.64.38-3.27.86-4.83,1.39-35.5,12.06-55.52,44.94-65.23,79.49-.57,2-1.09,4.31-.12,6.19,1.1,2.14,3.85,3,6.23,2.62a16.6,16.6,0,0,0,6.45-3.09c19.11-13.05,39.78-29.58,48.11-52,2.62-7,4-14.58,7.49-21.21s10.12-12.42,17.62-12C769.88,368,764.21,368.09,758.8,369.34Z" transform="translate(-56 -74.05)"/><path class="cls-1" d="M741.52,847.66A626.7,626.7,0,0,1,640.93,901a289.47,289.47,0,0,1-34.26,12c-9,2.49-25.9,2.87-31.69,9.66,4,2.56,11.09,2.44,15.92,2.64a576.05,576.05,0,0,0,144-11.87c36.94-7.89,73-19.69,103.61-38.34,48.69-29.72,79.1-74.71,92.77-123.19,10.34-36.67,11.85-74.82,9-112.49-2.9-38-10.31-75.9-18.19-112.15-6.37-29.31-15.28-58.67-19.8-88.17-.89-5.86-1.5-11.75-2.2-17.62-4.1-34.34-12.68-67.67-21.78-100.91a72.34,72.34,0,0,1-2.62-14.05c-.33-4.94,1.17-9.77.76-14.63-4.41,1.84-5.81,7.29-6.56,12a396.31,396.31,0,0,0-4.73,49.82q-.39,12.3,0,24.6c.11,3.71.57,12.87-3.72,14.5-6.35-26.48-14.42-56-10.77-83.37,1.3-9.7,4.31-19.08,5.65-28.77.25-1.81,2.13-11.18,0-12.32-1.84-1-3.92,2.57-4.32,4.12-2.59,10-5.56,20-7.81,30.1a205,205,0,0,0-4.06,31q-1.12,16.73-1.35,33.48a3.28,3.28,0,0,1-.59,2.25c-1.09,1.15-3.81.47-4.82-.51a5.5,5.5,0,0,1-1.2-3.68c-.71-10.79.18-21.59.65-32.38.46-10.37.63-20.59,2.23-30.89,2.29-14.72,6.29-29.12,10.91-43.27a246.36,246.36,0,0,1,10.65-27.84c2.79-6,6.93-10.9,10-16.68a92.86,92.86,0,0,0,7.62-20c4-14.8,7.23-29.92,10.28-44.93Q892,112,896.06,74.37c-2.66-1.41-5.1,2.22-6,5.11l-41,136.89c-6,20-12,40-17.08,60.31-2.61,10.4-5,20.86-7,31.4-.77,4-2,27.5-7.73,25.58-3.7-65.83,38.34-127.94,37.19-193.79,0,2.07-4.16,6.21-5.22,8a73.4,73.4,0,0,0-4.91,10.28,128.65,128.65,0,0,0-6.08,22.16C835,197,833,213.28,826.64,229.22,822.38,240,817,250.27,812.47,261c-7.88,18.79-9.12,38.29-10.6,58.4a435.76,435.76,0,0,0,1.5,76.19c5.41,53.25,18.19,105.36,29.85,157.48,12.85,57.45,20.91,115.67,11,173.73-8.88,52.24-55.27,90-102.74,120.9" transform="translate(-56 -74.05)"/><path class="cls-1" d="M294,246" transform="translate(-56 -74.05)"/></svg>